{
  "accessors": [
    {
      "bufferView": 2,
      "componentType": 5126,
      "count": 65532,
      "max": [
        0.10515087842941284,
        0.5000088214874268,
        0.09456199407577515
      ],
      "min": [
        -0.10384809970855713,
        -0.49389606714248657,
        -0.3230697214603424
      ],
      "type": "VEC3"
    },
    {
      "bufferView": 2,
      "byteOffset": 786384,
      "componentType": 5126,
      "count": 65532,
      "max": [
        1.0,
        1.0,
        1.0
      ],
      "min": [
        -1.0,
        -1.0,
        -0.9999690055847168
      ],
      "type": "VEC3"
    },
    {
      "bufferView": 3,
      "componentType": 5126,
      "count": 65532,
      "max": [
        0.9999939799308777,
        0.9999902844429016,
        0.999998927116394,
        1.0
      ],
      "min": [
        -0.9999496340751648,
        -0.9999733567237854,
        -1.0,
        -1.0
      ],
      "type": "VEC4"
    },
    {
      "bufferView": 1,
      "componentType": 5126,
      "count": 65532,
      "max": [
        0.9995369911193848,
        0.9998317360877991
      ],
      "min": [
        1.1151007129228674e-05,
        0.001008749008178711
      ],
      "type": "VEC2"
    },
    {
      "bufferView": 1,
      "byteOffset": 524256,
      "componentType": 5126,
      "count": 65532,
      "max": [
        0.9995369911193848,
        0.9998317360877991
      ],
      "min": [
        1.1151007129228674e-05,
        0.001008749008178711
      ],
      "type": "VEC2"
    },
    {
      "bufferView": 1,
      "byteOffset": 1048512,
      "componentType": 5126,
      "count": 65532,
      "max": [
        0.9995369911193848,
        0.9998317360877991
      ],
      "min": [
        1.1151007129228674e-05,
        0.001008749008178711
      ],
      "type": "VEC2"
    },
    {
      "bufferView": 1,
      "byteOffset": 1572768,
      "componentType": 5126,
      "count": 65532,
      "max": [
        0.9995369911193848,
        0.9998317360877991
      ],
      "min": [
        1.1151007129228674e-05,
        0.001008749008178711
      ],
      "type": "VEC2"
    },
    {
      "bufferView": 0,
      "componentType": 5125,
      "count": 346302,
      "type": "SCALAR"
    },
    {
      "bufferView": 2,
      "byteOffset": 1572768,
      "componentType": 5126,
      "count": 60895,
      "max": [
        0.10515087842941284,
        0.49958154559135437,
        0.32309359312057495
      ],
      "min": [
        -0.10512992739677429,
        -0.5,
        -0.12096820026636124
      ],
      "type": "VEC3"
    },
    {
      "bufferView": 2,
      "byteOffset": 2303508,
      "componentType": 5126,
      "count": 60895,
      "max": [
        1.0,
        1.0,
        1.0
      ],
      "min": [
        -1.0,
        -1.0,
        -1.0
      ],
      "type": "VEC3"
    },
    {
      "bufferView": 3,
      "byteOffset": 1048512,
      "componentType": 5126,
      "count": 60895,
      "max": [
        0.9999690055847168,
        0.9999241828918457,
        1.0,
        1.0
      ],
      "min": [
        -0.9999237060546875,
        -1.0,
        -0.9999197125434875,
        -1.0
      ],
      "type": "VEC4"
    },
    {
      "bufferView": 1,
      "byteOffset": 2097024,
      "componentType": 5126,
      "count": 60895,
      "max": [
        0.9980725049972534,
        0.9998317360877991
      ],
      "min": [
        0.0009874887764453888,
        0.001008749008178711
      ],
      "type": "VEC2"
    },
    {
      "bufferView": 1,
      "byteOffset": 2584184,
      "componentType": 5126,
      "count": 60895,
      "max": [
        0.9980725049972534,
        0.9998317360877991
      ],
      "min": [
        0.0009874887764453888,
        0.001008749008178711
      ],
      "type": "VEC2"
    },
    {
      "bufferView": 1,
      "byteOffset": 3071344,
      "componentType": 5126,
      "count": 60895,
      "max": [
        0.9980725049972534,
        0.9998317360877991
      ],
      "min": [
        0.0009874887764453888,
        0.001008749008178711
      ],
      "type": "VEC2"
    },
    {
      "bufferView": 1,
      "byteOffset": 3558504,
      "componentType": 5126,
      "count": 60895,
      "max": [
        0.9980725049972534,
        0.9998317360877991
      ],
      "min": [
        0.0009874887764453888,
        0.001008749008178711
      ],
      "type": "VEC2"
    },
    {
      "bufferView": 0,
      "byteOffset": 1385208,
      "componentType": 5125,
      "count": 322524,
      "type": "SCALAR"
    }
  ],
  "asset": {
    "extras": {
      "author": "Vortex3D (https://sketchfab.com/zulon)",
      "license": "CC-BY-4.0 (http://creativecommons.org/licenses/by/4.0/)",
      "source": "https://sketchfab.com/3d-models/mystic-demoness-f8cd0130148d4e62962c0042de222d7d",
      "title": "“Mystic Demoness"
    },
    "generator": "Sketchfab-16.63.0",
    "version": "2.0"
  },
  "bufferViews": [
    {
      "buffer": 0,
      "byteLength": 2675304,
      "name": "floatBufferViews",
      "target": 34963
    },
    {
      "buffer": 0,
      "byteLength": 4045664,
      "byteOffset": 2675304,
      "byteStride": 8,
      "name": "floatBufferViews",
      "target": 34962
    },
    {
      "buffer": 0,
      "byteLength": 3034248,
      "byteOffset": 6720968,
      "byteStride": 12,
      "name": "floatBufferViews",
      "target": 34962
    },
    {
      "buffer": 0,
      "byteLength": 2022832,
      "byteOffset": 9755216,
      "byteStride": 16,
      "name": "floatBufferViews",
      "target": 34962
    }
  ],
  "buffers": [
    {
      "byteLength": 11778048,
      "uri": "scene.bin"
    }
  ],
  "extensionsUsed": [
    "KHR_materials_specular"
  ],
  "images": [
    {
      "uri": "textures/tripo_material_928cc4ed-94a0-4ed0-a19b-48ea17500cf1_baseColor.jpeg"
    },
    {
      "uri": "textures/tripo_material_928cc4ed-94a0-4ed0-a19b-48ea17500cf1_metallicRoughness.png"
    },
    {
      "uri": "textures/tripo_material_928cc4ed-94a0-4ed0-a19b-48ea17500cf1_normal.jpeg"
    }
  ],
  "materials": [
    {
      "extensions": {
        "KHR_materials_specular": {
          "specularColorFactor": [
            1.0,
            1.0,
            1.0
          ],
          "specularFactor": 0.06042642820938637
        }
      },
      "name": "tripo_material_928cc4ed-94a0-4ed0-a19b-48ea17500cf1",
      "normalTexture": {
        "index": 2,
        "texCoord": 2
      },
      "pbrMetallicRoughness": {
        "baseColorTexture": {
          "index": 0
        },
        "metallicFactor": 0.08471846710094062,
        "metallicRoughnessTexture": {
          "index": 1,
          "texCoord": 1
        }
      }
    }
  ],
  "meshes": [
    {
      "name": "Object_0",
      "primitives": [
        {
          "attributes": {
            "NORMAL": 1,
            "POSITION": 0,
            "TANGENT": 2,
            "TEXCOORD_0": 3,
            "TEXCOORD_1": 4,
            "TEXCOORD_2": 5,
            "TEXCOORD_3": 6
          },
          "indices": 7,
          "material": 0,
          "mode": 4
        }
      ]
    },
    {
      "name": "Object_1",
      "primitives": [
        {
          "attributes": {
            "NORMAL": 9,
            "POSITION": 8,
            "TANGENT": 10,
            "TEXCOORD_0": 11,
            "TEXCOORD_1": 12,
            "TEXCOORD_2": 13,
            "TEXCOORD_3": 14
          },
          "indices": 15,
          "material": 0,
          "mode": 4
        }
      ]
    }
  ],
  "nodes": [
    {
      "children": [
        1
      ],
      "matrix": [
        1.0,
        0.0,
        0.0,
        0.0,
        0.0,
        2.220446049250313e-16,
        -1.0,
        0.0,
        0.0,
        1.0,
        2.220446049250313e-16,
        0.0,
        0.0,
        0.0,
        0.0,
        1.0
      ],
      "name": "Sketchfab_model"
    },
    {
      "children": [
        2
      ],
      "name": "root"
    },
    {
      "children": [
        3
      ],
      "matrix": [
        1.0,
        0.0,
        0.0,
        0.0,
        0.0,
        2.220446049250313e-16,
        1.0,
        0.0,
        0.0,
        -1.0,
        2.220446049250313e-16,
        0.0,
        0.0,
        0.0,
        0.0,
        1.0
      ],
      "name": "GLTF_SceneRootNode"
    },
    {
      "children": [
        4,
        5
      ],
      "name": "tripo_node_928cc4ed-94a0-4ed0-a19b-48ea17500cf1_0"
    },
    {
      "mesh": 0,
      "name": "Object_4"
    },
    {
      "mesh": 1,
      "name": "Object_5"
    }
  ],
  "samplers": [
    {
      "magFilter": 9729,
      "minFilter": 9987,
      "wrapS": 10497,
      "wrapT": 10497
    }
  ],
  "scene": 0,
  "scenes": [
    {
      "name": "Sketchfab_Scene",
      "nodes": [
        0
      ]
    }
  ],
  "textures": [
    {
      "sampler": 0,
      "source": 0
    },
    {
      "sampler": 0,
      "source": 1
    },
    {
      "sampler": 0,
      "source": 2
    }
  ]
}
